<svg width="32" height="6" viewBox="0 0 32 6" fill="none" xmlns="http://www.w3.org/2000/svg">
<path d="M2.26609 0L0.981827 0L1.91746 0.901407L2.26609 0Z" fill="white"/>
<path d="M7.87935 5.85915H0L2.26609 0L4.89254 0L3.2075 4.3568H5.83395L7.51899 0H10.1454L7.87935 5.85915Z" fill="white"/>
<path d="M13.4024 1.50235L12.2984 4.3568H17.5513L16.9703 5.85915H9.0909L11.357 0H19.2363L18.6553 1.50235H13.4024Z" fill="white"/>
<path d="M22.4605 1.50235L20.773 5.85915H18.1428L19.8303 1.50235H18.6544L19.2363 0H25.6727L25.0908 1.50235H22.4605Z" fill="white"/>
<path fill-rule="evenodd" clip-rule="evenodd" d="M26.8727 0H26.2751L23.9637 5.85915H24.5613L26.8727 0ZM27.4871 0H28.7637L26.4403 5.85915H25.1637L27.4871 0ZM29.375 0H32L29.6795 5.85915H27.0545L29.375 0Z" fill="#FF001D"/>
</svg>
